<?xml version="1.0" encoding="UTF-8"?>
<svg width="77px" height="36px" viewBox="0 0 77 36" version="1.1" xmlns="http://www.w3.org/2000/svg" xmlns:xlink="http://www.w3.org/1999/xlink">
    <!-- Generator: Sketch 51.1 (57501) - http://www.bohemiancoding.com/sketch -->
    <title>Group 2</title>
    <desc>Created with Sketch.</desc>
    <defs></defs>
    <g id="Page-1" stroke="none" stroke-width="1" fill="none" fill-rule="evenodd">
        <g id="Service" transform="translate(-208.000000, -167.000000)">
            <g id="Group-2" transform="translate(208.000000, 167.000000)">
                <path d="M25.456,17.816 L31.36,17.816 L31.36,31.208 C29.6319914,32.5840069 27.6160115,33.6399963 25.312,34.376 C23.0079885,35.1120037 20.6400122,35.48 18.208,35.48 C14.7839829,35.48 11.6960138,34.7360074 8.944,33.248 C6.19198624,31.7599926 4.03200784,29.7040131 2.464,27.08 C0.89599216,24.4559869 0.112,21.4960165 0.112,18.2 C0.112,14.9039835 0.89599216,11.9440131 2.464,9.32 C4.03200784,6.69598688 6.19998616,4.64000744 8.968,3.152 C11.7360138,1.66399256 14.8479827,0.92 18.304,0.92 C21.1200141,0.92 23.6799885,1.38399536 25.984,2.312 C28.2880115,3.24000464 30.2239922,4.59999104 31.792,6.392 L27.856,10.232 C25.2959872,7.6719872 22.2080181,6.392 18.592,6.392 C16.2239882,6.392 14.1200092,6.88799504 12.28,7.88 C10.4399908,8.87200496 9.0000052,10.263991 7.96,12.056 C6.9199948,13.848009 6.4,15.8959885 6.4,18.2 C6.4,20.4400112 6.9199948,22.455991 7.96,24.248 C9.0000052,26.040009 10.4399908,27.4479949 12.28,28.472 C14.1200092,29.4960051 16.2079883,30.008 18.544,30.008 C21.1680131,30.008 23.4719901,29.4320058 25.456,28.28 L25.456,23.4643555 L17.072998,23.4643555 L17.072998,17.816 L25.456,17.816 Z M53.9782857,35.48 C50.5542686,35.48 47.4662995,34.7360074 44.7142857,33.248 C41.962272,31.7599926 39.8022936,29.6960132 38.2342857,27.056 C36.6662779,24.4159868 35.8822857,21.4640163 35.8822857,18.2 C35.8822857,14.9359837 36.6662779,11.9840132 38.2342857,9.344 C39.8022936,6.7039868 41.962272,4.64000744 44.7142857,3.152 C47.4662995,1.66399256 50.5542686,0.92 53.9782857,0.92 C57.4023029,0.92 60.490272,1.66399256 63.2422857,3.152 C65.9942995,4.64000744 68.1542779,6.69598688 69.7222857,9.32 C71.2902936,11.9440131 72.0742857,14.9039835 72.0742857,18.2 C72.0742857,21.4960165 71.2902936,24.4559869 69.7222857,27.08 C68.1542779,29.7040131 65.9942995,31.7599926 63.2422857,33.248 C60.490272,34.7360074 57.4023029,35.48 53.9782857,35.48 Z M53.9782857,30.008 C56.2182969,30.008 58.2342768,29.504005 60.0262857,28.496 C61.8182947,27.487995 63.2262806,26.080009 64.2502857,24.272 C65.2742909,22.463991 65.7862857,20.4400112 65.7862857,18.2 C65.7862857,15.9599888 65.2742909,13.936009 64.2502857,12.128 C63.2262806,10.319991 61.8182947,8.91200504 60.0262857,7.904 C58.2342768,6.89599496 56.2182969,6.392 53.9782857,6.392 C51.7382745,6.392 49.7222947,6.89599496 47.9302857,7.904 C46.1382768,8.91200504 44.7302909,10.319991 43.7062857,12.128 C42.6822806,13.936009 42.1702857,15.9599888 42.1702857,18.2 C42.1702857,20.4400112 42.6822806,22.463991 43.7062857,24.272 C44.7302909,26.080009 46.1382768,27.487995 47.9302857,28.496 C49.7222947,29.504005 51.7382745,30.008 53.9782857,30.008 Z" id="GO" fill="#FFFFFF"></path>
                <polyline id="Path-3-Copy" stroke="#FFFFFF" stroke-width="5" points="48 22.0529785 53.9536133 15.0739746 59.0161133 20.0500488 74.9724121 2"></polyline>
            </g>
        </g>
    </g>
</svg>