<svg id="Layer_1" data-name="Layer 1" xmlns="http://www.w3.org/2000/svg" viewBox="0 0 1834 1034"><defs><style>.cls-1{fill:#fcfcfc;}.cls-2{fill:#bedef8;}.cls-3{fill:#97d1f6;}.cls-4{fill:#83c1f2;}.cls-5{fill:#8ac7f4;}.cls-6{fill:#90cbf5;}.cls-7{fill:#9dd6f7;}.cls-8{fill:#7ebdf1;}.cls-9{fill:#148feb;}.cls-10{fill:#108bea;}.cls-11{fill:#1892eb;}.cls-12{fill:#2ea3ef;}.cls-13{fill:#2199ed;}.cls-14{fill:#269dee;}.cls-15{fill:#0d89e9;}.cls-16{fill:#3caef2;}.cls-17{fill:#1d96ec;}.cls-18{fill:#1b94ec;}.cls-19{fill:#0280e7;}.cls-20{fill:#31a6f0;}.cls-21{fill:#2ba1ef;}.cls-22{fill:#239bed;}.cls-23{fill:#0a87e9;}.cls-24{fill:#0482e8;}.cls-25{fill:#0785e8;}.cls-26{fill:#40b2f3;}.cls-27{fill:#299fee;}.cls-28{fill:#37aaf1;}.cls-29{fill:#34a8f0;}.cls-30{fill:#39acf1;}.cls-31{fill:#44b4f3;}.cls-32{fill:#ddf6fc;}</style></defs><title>bgSVG</title><path class="cls-1" d="M1835.84764,649.2914q0,187.703.21628,375.40561c.019,7.74982-1.56284,9.30592-9.30917,9.303q-906.69027-.34263-1813.38056,0c-7.74631.00293-9.30959-1.55571-9.304-9.30259Q4.43709,516.79515,4,8.89293C3.99054-.654,7.6779-.3297,14.67316-.32619q439.05621.22029,878.11262.126a4.59411,4.59411,0,0,1,1.02649,3.57358c-3.86278,10.31043-8.2792,20.39791-12.46823,30.5946a582.10538,582.10538,0,0,0-38.76066,158.43568c-8.0105,78.98633.53849,156.29857,24.70359,231.87662,4.34673,13.59445,8.481,27.27825,13.835,40.51858,14.71726,34.65191,31.0099,68.49949,52.02569,99.87968,16.30659,27.0913,37.07494,50.78038,57.27419,74.898,10.94693,11.72783,22.42665,22.92463,33.97606,34.04812,13.89112,11.06943,26.58206,23.60045,41.25215,33.71561a401.54045,401.54045,0,0,0,36.46691,25.72556c12.627,8.38488,25.47154,16.38484,39.31676,22.65832,16.98557,10.66761,35.469,18.2304,53.8615,25.98,11.77458,4.94754,23.8184,9.17415,35.84247,13.45935,11.19335,3.83884,22.63081,6.81229,34.08064,9.75569,13.952,3.34007,27.6508,7.73634,41.91559,9.7396,12.8897,1.712,25.564,4.89442,38.62406,5.38011,18.02879,1.765,35.95054,4.69375,54.13408,4.55961,18.53-1.089,37.14756,2.23722,55.61162-1.22557,8.72231-2.152,17.88924.34663,26.54067-2.568,11.28587-1.47745,22.6006-2.808,33.7704-5.07669,18.8454-3.79856,37.75011-7.359,56.05734-13.40068,17.76873-4.78255,35.42821-9.911,52.32657-17.32371a323.55444,323.55444,0,0,0,46.856-20.65506c13.15934-6.344,26.58524-12.2031,38.41436-20.9844,12.7412-8.94042,27.77956-14.34185,39.12045-25.442,14.38729-9.60537,27.7163-20.57434,40.82807-31.82065,14.73581-12.11,28.61029-25.208,43.10778-37.60106A3.38054,3.38054,0,0,1,1835.84764,649.2914Z"/><path class="cls-2" d="M1835.84764,649.2914l-1.20829.068-1.21018-.00242c-6.41326-6.89895-4.39676-15.52854-4.4031-23.51553q-.1929-245.33682-.09419-490.674-.00024-56.46645.03013-112.93288c.01015-6.03295-.49838-12.13862,1.50036-18.02238a17.98428,17.98428,0,0,1,2.7873-4.41247c5.43362,2.88192,2.4329,7.88833,2.43607,11.691Q1835.95879,330.39093,1835.84764,649.2914Z"/><path class="cls-3" d="M1020.08614-.20023h223.42513A2.801,2.801,0,0,1,1242.57,3.7466c-4.22947,2.5429-8.94629,2.22474-13.59548,2.34611-12.61744.53078-25.23369.41267-37.855.12073q-24.35653.74146-48.70339.019c-13.81327.42088-27.626.47278-41.43585-.01012-12.01108.35626-24.02382.45244-36.03093-.02909-12.45736.18431-24.92012.46052-37.37883-.22529a14.59348,14.59348,0,0,1-6.59117-2.15854A2.892,2.892,0,0,1,1020.08614-.20023Z"/><path class="cls-4" d="M1586.44285-.20023H1807.27a2.85319,2.85319,0,0,1-1.03084,4.002c-6.63842,3.46177-13.80963,2.14232-20.81846,2.34006-13.52357.50934-27.0446.43078-40.56817.07532q-19.401.65235-38.79635.00812c-12.981.4252-25.961.44833-38.94.00138-14.54792.4016-29.096.485-43.64216-.02387-11.96692-.46895-24.13917,2.21007-35.85508-2.27912A2.96829,2.96829,0,0,1,1586.44285-.20023Z"/><path class="cls-5" d="M1586.44285-.20023q-.00832,1.11351-.02918,2.22685c-3.64229,4.511-8.8146,3.9-13.73985,4.1288-19.60209.62309-39.20783.53541-58.81388.08275-15.50725.44313-31.01418.4997-46.51857-.0102-12.89866.36328-25.7989.46574-38.69676-.03342-11.11906-.42761-22.44505,2.07966-33.29818-2.28622a2.9545,2.9545,0,0,1-1.15311-4.10856Z"/><path class="cls-6" d="M1394.19332-.20023q-.00737,1.12142-.0241,2.24272c-1.494,2.17217-3.71348,3.088-6.17493,3.5938-14.397,1.46837-28.82975.699-43.25588.57343q-18.13329.641-36.26458.01328c-14.60873.42326-29.216.4699-43.82539-.009-7.27736-.24208-15.03669,1.965-21.16619-4.13282q.01831-1.14066.029-2.28143Z"/><path class="cls-7" d="M1020.08614-.20023q-.00772,1.13572-.02521,2.27133c-9.59784,7.58811-20.75178,3.44068-31.26122,4.16449q-27.20313.743-54.41015.01231c-13.92348-.95949-28.39964,3.93609-41.67069-3.91975a9.14229,9.14229,0,0,0,.06691-2.52838Z"/><path class="cls-8" d="M1807.25113,1.97562q.01119-1.0879.01887-2.17585h25.97967q-.14722,1.47263-.2943,2.94525C1824.2302,7.73831,1815.63776,8.29521,1807.25113,1.97562Z"/><path class="cls-9" d="M1513.71881,2.76533l59.74975-.00871c6.08787,7.02379,4.223,15.60108,4.23041,23.61909q.18243,194.59388.08468,389.188,0,182.91837-.0685,365.8367c-.00666,8.0603,1.624,16.59439-4.25991,23.67378a233.13048,233.13048,0,0,1-57.04966,13.15221c-6.0124-.53413-5.83116-5.50427-6.52917-9.53941-.81091-4.688-.50044-9.4893-.5006-14.24529q-.01521-384.03443.07659-768.06883C1509.45557,18.35561,1507.59716,9.774,1513.71881,2.76533Z"/><path class="cls-10" d="M1573.45524,805.07417l.01332-802.31886q6.47264-.36162,12.94511-.72728,18.20678.384,36.41355.77074c6.11705,7.02732,4.213,15.61909,4.22011,23.64007q.18433,210.38655.09308,420.77333.029,163.634.102,327.26779A60.284,60.284,0,0,1,1626.072,787.367C1609.3184,795.60311,1591.63561,801.07812,1573.45524,805.07417Z"/><path class="cls-11" d="M1513.71881,2.76533q-.00951,400.37083.06755,800.74164c.00175,4.94516-1.96369,10.48955,2.61922,14.71933a108.79953,108.79953,0,0,1-33.70618,5.19054c-17.21692,2.60629-19.33046,1.00365-20.00374-15.24371-.14334-3.46009-.09022-6.925-.09038-10.388q-.0057-385.04136.09118-770.08269c.00364-8.43481-2.10134-17.47441,4.25341-24.92864Z"/><path class="cls-12" d="M1142.205,2.72616l49.36247.09882c6.10334,7.03667,4.16366,15.62649,4.16977,23.64038q.18171,237.58365.12733,475.16746c.07889,89.50367-.24689,179.0071-.02268,268.51064.01182,4.71635.72989,9.55963-1.72735,13.988-18.91359-7.16494-37.53319-14.943-54.51-26.14592-2.069-2.993-2.39826-6.34349-2.37693-9.8946,1.45042-241.44095.23159-482.88427.71308-724.32608C1137.95508,16.55473,1136.61083,8.8855,1142.205,2.72616Z"/><path class="cls-13" d="M1344.844,2.74869l44.16607-.00276c6.07376,7.045,4.19378,15.63088,4.20092,23.65876q.17958,204.57395.08452,409.14815.00095,180.54474-.08864,361.08944c-.01269,10.90491.31016,21.50791,6.00272,31.204-18.22033-.34131-36.41862-.95-54.37764-4.46977-5.62565-6.65143-4.26451-14.72686-4.27149-22.38114q-.14008-154.40736-.06025-308.81492-.00024-232.90875.08388-465.8175C1340.59013,18.34289,1338.73648,9.7632,1344.844,2.74869Z"/><path class="cls-14" d="M1264.30919,2.76139l44.16337-.00856c6.08748,7.02969,4.21448,15.61063,4.22177,23.63174q.18244,200.51442.0846,401.02909-.002,181.04714-.08888,362.0942c-.01149,9.73619,1.75217,20.19886-6.82053,27.977a187.90041,187.90041,0,0,1-41.57468-9.69488c-5.87635-7.08209-4.25452-15.61611-4.26245-23.67814q-.15912-162.8362-.06921-325.67253.00024-216.03383.08483-432.06761C1260.05467,18.35351,1258.193,9.7726,1264.30919,2.76139Z"/><path class="cls-15" d="M1626.072,787.367c-5.44124-4.35544-3.15565-10.45053-3.158-15.766q-.1646-384.40251-.08674-768.80372,22.08161-.00106,44.16306-.00508c6.11039,7.02949,4.20932,15.6199,4.21567,23.64084q.17814,226.60524.08642,453.21068.00095,128.56124-.033,257.12242a218.75325,218.75325,0,0,0,1.70286,29.78568C1658.37325,775.83548,1642.30182,781.77977,1626.072,787.367Z"/><path class="cls-16" d="M934.37347,2.7137l54.549-.006c6.29417,7.48,4.21757,16.5132,4.22288,24.958q.18088,285.77058.08825,571.54131c-.00016,9.09253.1592,18.188-.106,27.27663-.15056,5.1622-.00134,10.4989-4.12076,14.57871a399.43063,399.43063,0,0,1-57.969-74.5403c-.89511-9.04825-1.03267-18.116-1.03021-27.20666q.07017-256.4793.11607-512.95857C930.12886,18.327,928.28131,9.74326,934.37347,2.7137Z"/><path class="cls-17" d="M1399.2096,827.84626c-9.91077-1.6732-10.39171-8.33834-10.385-16.85023q.32229-404.12636.18553-808.25162,2.57973-.34783,5.15914-.70032,16.90431.36486,33.80845.73292c6.0901,7.03223,4.19775,15.61534,4.20521,23.6342q.18646,201.82919.08689,403.65861.00142,182.36025.00365,364.72055c.00032,4.75853.10323,9.5184.10529,14.27494.00333,7.61536,2.76161,12.3279,11.18518,12.61126,4.68756.15769,9.61916.38508,13.17075,4.35021C1437.64885,829.4539,1418.42526,828.52723,1399.2096,827.84626Z"/><path class="cls-18" d="M1456.73464,826.02678c-28.76775-.34663-28.76807-.34663-28.76775-29.687q.00524-396.78306.01078-793.56448,19.48595-.00066,38.972-.00309-.00642,402.64061-.30572,805.27761c-.01887,12.8698,4.02222,17.19765,16.05494,15.36683C1474.28455,826.67588,1465.44617,825.71979,1456.73464,826.02678Z"/><path class="cls-19" d="M1807.25113,1.97562q12.85228.38458,25.7044.76928.15413,70.10985.2962,140.21946.12869,253.1963.17744,506.39261a274.94391,274.94391,0,0,1-42.5574,38.86318c-6.64556,1.99224-6.92939-3.3759-7.85495-7.24486-1.314-5.493-.84421-11.20009-.84453-16.82415q-.02355-318.87047.0731-637.7409c.004-8.02535-1.87173-16.61738,4.25277-23.63879Z"/><path class="cls-20" d="M1142.205,2.72616q-.00726,360.28122-.01927,720.56241c-.00055,11.62735.7337,23.31463-2.58123,34.69738-13.81526-6.28981-27.06411-13.53388-38.93263-23.104-4.06726-5.58164-4.36473-12.02828-4.3656-18.58369q-.04424-347.57241.05391-695.14482c.00246-6.39119-.75835-13.12192,4.27561-18.4181Z"/><path class="cls-21" d="M1194.11454,784.13148c-3.32936-5.06956-2.55135-10.79225-2.55262-16.37089q-.02307-102.46392-.00967-204.92793.00654-280.00567.01522-560.00953,19.48131-.05179,38.9626-.10727c6.073,7.032,4.23343,15.61,4.24105,23.63728q.18171,193.4063.08348,386.81281,0,180.42612-.092,360.85219c-.009,8.0017,1.94531,16.60691-4.29923,23.57507A170.1206,170.1206,0,0,1,1194.11454,784.13148Z"/><path class="cls-22" d="M1305.86952,817.48484c3.01246-10.522,2.60962-21.31,2.60883-32.08673q-.02831-391.32438-.00587-782.647,18.18573-.00112,36.37153-.004-.00594,410.31634-.01205,820.62942A171.81852,171.81852,0,0,1,1305.86952,817.48484Z"/><path class="cls-23" d="M1672.96224,766.55184c-8.55772-1.60114-5.87651-8.45743-5.8865-13.51787q-.21144-107.73375-.09593-215.468.00451-267.38823.01047-534.77507,19.4845-.00115,38.969-.005c6.10357,7.02874,4.20409,15.615,4.21028,23.63326q.17862,232.35589.08642,464.712.0007,104.4953-.01649,208.99062c-.00809,15.14453-.071,30.28509,1.15008,45.39608C1699.68447,754.54607,1686.42111,760.7275,1672.96224,766.55184Z"/><path class="cls-24" d="M1786.49816,2.77145q-.00594,335.42027.1527,670.84037c.00413,4.915-3.514,11.62219,4.22091,14.60833-11.87622,12.36309-25.85678,22.06519-39.96625,31.60405-7.1785.58455-8.53457-4.69352-9.55051-9.87716-1.16864-5.9638-.7524-12.06729-.75272-18.11639q-.02117-332.07607.08277-664.15215c.0046-8.42525-2.1026-17.45521,4.24723-24.901Z"/><path class="cls-25" d="M1744.93229,2.77752q-.00666,350.06643.04661,700.13286c.00175,6.17516-2.18981,13.44206,5.92646,16.91366-11.47282,11.17772-26.18533,17.37279-39.51577,25.69369-7.90061-3.81077-5.35243-11.11216-5.35481-17.20638q-.14557-362.764-.07548-725.5268Q1725.44571,2.7823,1744.93229,2.77752Z"/><path class="cls-26" d="M934.37347,2.7137q-.01011,274.04242-.12329,548.08478c-.00381,5.30142,2.33855,11.41815-3.21146,15.72286a436.1552,436.1552,0,0,1-51.5-98.43711c-1.77666-7.6502-1.40942-15.45124-1.41013-23.19321q-.01855-194.17247-.03077-388.34492a153.33419,153.33419,0,0,1,1.65893-25.67134c3.01992-10.10616,6.512-19.99788,12.96217-28.54651Q913.54612,2.52086,934.37347,2.7137Z"/><path class="cls-27" d="M1230.46332,797.59321q.03342-397.44024.06668-794.87893,6.47632-.31326,12.95241-.63138,10.4131.3357,20.8267.67665l-.01427,805.03033C1252.66369,805.5655,1241.19262,802.80991,1230.46332,797.59321Z"/><path class="cls-28" d="M1025.29532,2.73912l38.96894-.00466c6.08042,7.03093,4.23026,15.61113,4.23589,23.63621q.17114,243.38633.08309,486.77283-.00036,87.61911-.08048,175.23807c-.01831,7.18183,1.44669,14.885-4.34165,20.96371a244.64508,244.64508,0,0,1-41.34127-34.47793c-2.45811-3.4172-2.13748-7.34015-2.126-11.24067.62674-211.98691.07413-423.97438.36677-635.96131C1021.07227,19.2311,1018.96824,10.20008,1025.29532,2.73912Z"/><path class="cls-29" d="M1064.16111,709.34528q.05149-353.30742.10315-706.6128,18.18573.00152,36.37145.001.0182,366.0762.03616,732.1486C1087.67934,727.54539,1075.1411,719.55931,1064.16111,709.34528Z"/><path class="cls-30" d="M1025.29532,2.73912q-.00666,325.85562.05867,651.71119c.00261,6.97371-.50282,13.75769-2.5343,20.41728a212.69146,212.69146,0,0,1-33.81289-33.80492q-.04223-319.17966-.08436-638.35686,15.56935-.3135,31.13865-.63273Q1022.67805,2.40412,1025.29532,2.73912Z"/><path class="cls-31" d="M879.75678,30.87476c2.23977,7.05292,2.716,14.26027,2.71032,21.65591q-.15139,196.3128.00055,392.62572c.00618,7.83148-.43138,15.47446-2.9281,22.92554-17.66551-39.1888-28.62758-80.40444-35.59178-122.62465q-26.2151-158.928,32.78236-309.034A49.71464,49.71464,0,0,1,879.75678,30.87476Z"/><path class="cls-32" d="M24.0735,534.151c.06428,1.944-.849,3.21924-2.78617,3.32052-1.72749.09034-3.432-.41715-3.51357-2.575a3.1121,3.1121,0,0,1,2.77243-3.51711C22.36452,531.19052,23.58319,532.34961,24.0735,534.151Z"/></svg>